{"title":"Vingadores 1a temporada dublado","uid":7490228,"size":4494633374,"categoryP":"video","categoryS":"tv_shows","magnet":"?xt=urn:btih:e9b65ce86ee2f3ce228d559f8c9f0e5ed8f92735&amp;dn=Vingadores+1a+temporada+dublado&amp;tr=udp%3A%2F%2Ftracker.openbittorrent.com%3A80&amp;tr=udp%3A%2F%2Fopen.demonii.com%3A1337&amp;tr=udp%3A%2F%2Ftracker.coppersurfer.tk%3A6969&amp;tr=udp%3A%2F%2Fexodus.desync.com%3A6969","seeders":4,"leechers":0,"uploader":"vandreleon","files":-1,"time":1343709867,"description":"Primeira temporada dublada dos Vingadores, desenho animado.\n\n\nGeneral\nComplete name                            : C:UsersleonDesktopFilmesVING-1TEMP.Up.By.LeosevenVING-1TEMP.Up.By.LeosevenVING-01.avi\nFormat                                   : AVI\nFormat/Info                              : Audio Video Interleave\nFile size                                : 174 MiB\nDuration                                 : 21mn 28s\nOverall bit rate                         : 1 135 Kbps\nWriting library                          : VirtualDub-MPEG2 build 24586/release\n\nVideo\nID                                       : 0\nFormat                                   : MPEG-4 Visual\nFormat settings, BVOP                    : 1\nFormat settings, QPel                    : No\nFormat settings, GMC                     : No warppoints\nFormat settings, Matrix                  : Default (H.263)\nMuxing mode                              : Packed bitstream\nCodec ID                                 : DX50\nCodec ID/Hint                            : DivX 5\nDuration                                 : 21mn 28s\nBit rate                                 : 1 067 Kbps\nWidth                                    : 640 pixels\nHeight                                   : 432 pixels\nDisplay aspect ratio                     : 3:2\nFrame rate                               : 29.970 fps\nColor space                              : YUV\nChroma subsampling                       : 4:2:0\nBit depth                                : 8 bits\nScan type                                : Progressive\nCompression mode                         : Lossy\nBits/(Pixel*Frame)                       : 0.129\nStream size                              : 164 MiB (94%)\nWriting library                          : DivX 6.8.5 (UTC 2009-08-20)\n\nAudio\nID                                       : 1\nFormat                                   : MPEG Audio\nFormat version                           : Version 2\nFormat profile                           : Layer 3\nMode                                     : Joint stereo\nMode extension                           : Intensity Stereo + MS Stereo\nCodec ID                                 : 55\nCodec ID/Hint                            : MP3\nDuration                                 : 21mn 28s\nBit rate mode                            : Constant\nBit rate                                 : 56.0 Kbps\nChannel(s)                               : 2 channels\nSampling rate                            : 24.0 KHz\nCompression mode                         : Lossy\nStream size                              : 8.60 MiB (5%)\nAlignment                                : Split accross interleaves\nInterleave, duration                     : 33 ms (1.00 video frame)\nInterleave, preload duration             : 500 ms","torrent":{"xt":"urn:btih:e9b65ce86ee2f3ce228d559f8c9f0e5ed8f92735","amp;dn":"Vingadores+1a+temporada+dublado","amp;tr":["udp%3A%2F%2Ftracker.openbittorrent.com%3A80","udp%3A%2F%2Fopen.demonii.com%3A1337","udp%3A%2F%2Ftracker.coppersurfer.tk%3A6969","udp%3A%2F%2Fexodus.desync.com%3A6969"],"infoHash":"e9b65ce86ee2f3ce228d559f8c9f0e5ed8f92735","infoHashBuffer":{"type":"Buffer","data":[233,182,92,232,110,226,243,206,34,141,85,159,140,159,14,94,216,249,39,53]},"announce":[],"urlList":[]}}